Coordinates
version=1
nRows=29
nColumns=22
inDegrees=yes

Units are S.I. units (second, meters, Newtons, ...)
If the header above contains a line with 'inDegrees', this indicates whether rotational values are in degrees (yes) or radians (no).

endheader
time	pelvis_tilt	pelvis_list	pelvis_rotation	pelvis_tx	pelvis_ty	pelvis_tz	hip_flexion_r	hip_adduction_r	hip_rotation_r	knee_angle_r	ankle_angle_r	subtalar_angle_r	hip_flexion_l	hip_adduction_l	hip_rotation_l	knee_angle_l	ankle_angle_l	subtalar_angle_l	lumbar_extension	lumbar_bending	lumbar_rotation
      6.13000000	     -1.47922387	     -3.46700419	    280.72848568	     -0.46265363	      0.91777898	      0.70033038	     -2.78987928	     -5.61734924	      1.82034812	    -52.94297934	    -18.44910961	     14.81326942	     16.01068063	     -3.89554998	    -35.18448482	    -25.61171991	      6.02079183	    -13.17247709	     -5.81913539	     -6.94877565	      9.77515499
      6.14000000	     -1.26136828	     -3.51392632	    281.71367045	     -0.45720857	      0.91883124	      0.70750943	     -1.25339603	     -5.57737686	      2.08966828	    -55.49339709	    -18.57121362	     14.17460833	     15.28993824	     -3.15454645	    -34.50561213	    -25.21889765	      6.31559277	    -12.88820728	     -5.93480614	     -7.12730076	      9.21079572
      6.15000000	     -1.04590779	     -3.58483698	    282.76100357	     -0.45172383	      0.91993542	      0.71453788	      0.19581921	     -5.53194757	      2.24194558	    -57.76247972	    -18.41129522	     13.79258342	     14.50812005	     -2.41674997	    -33.79884238	    -24.75427924	      6.60328204	    -12.63225332	     -6.08978672	     -7.27952811	      8.58802351
      6.16000000	     -0.85141637	     -3.66030865	    283.84048439	     -0.44625685	      0.92106144	      0.72139203	      1.59944599	     -5.47820317	      2.29848964	    -59.75915314	    -18.02837152	     13.48984564	     13.70925706	     -1.71457069	    -33.03519164	    -24.25866184	      6.85754172	    -12.35169388	     -6.25470945	     -7.39759914	      8.01990751
      6.17000000	     -0.68756907	     -3.74841765	    284.97123233	     -0.44074937	      0.92223521	      0.72808659	      2.93203236	     -5.40638420	      2.26139668	    -61.45145535	    -17.49913069	     13.34606683	     12.89159422	     -1.06066785	    -32.21407361	    -23.74003887	      7.09026254	    -12.07945075	     -6.43238421	     -7.45861512	      7.44667135
      6.18000000	     -0.55873846	     -3.83455127	    286.14581789	     -0.43523400	      0.92342391	      0.73462002	      4.21657443	     -5.31739429	      2.14817324	    -62.84839992	    -16.86675823	     13.26819307	     12.08112539	     -0.46413246	    -31.32233234	    -23.21606537	      7.28447294	    -11.80077977	     -6.59945214	     -7.47290888	      6.88490215
      6.19000000	     -0.46198036	     -3.92489755	    287.36699826	     -0.42971431	      0.92459991	      0.74095349	      5.45008693	     -5.22056669	      1.95719719	    -63.96225039	    -16.11411649	     13.24362433	     11.29149545	      0.06572934	    -30.36784767	    -22.72696058	      7.48792780	    -11.54390128	     -6.76826707	     -7.44003342	      6.35762865
      6.20000000	     -0.40085007	     -3.98200049	    288.63986467	     -0.42415429	      0.92575328	      0.74709202	      6.67020885	     -5.12713013	      1.69656969	    -64.78288547	    -15.34628256	     13.12002620	     10.53237398	      0.56447194	    -29.30148934	    -22.18914410	      7.56707706	    -11.20082174	     -6.88692786	     -7.36669421	      5.83189002
      6.21000000	     -0.36527476	     -4.04435388	    289.95368828	     -0.41858987	      0.92685728	      0.75303386	      7.83484369	     -5.03674205	      1.38626379	    -65.33076456	    -14.42650038	     13.04315613	      9.78655027	      1.00322614	    -28.20636364	    -21.67458876	      7.68333827	    -10.92581023	     -7.00208980	     -7.25569624	      5.31444950
      6.22000000	     -0.34125935	     -4.09627258	    291.30494464	     -0.41304083	      0.92788717	      0.75875969	      8.96528349	     -4.97276540	      1.03631093	    -65.62396242	    -13.39649553	     12.95995635	      9.05965312	      1.40988839	    -27.05638814	    -21.16033711	      7.78330496	    -10.67228856	     -7.10587052	     -7.13153706	      4.81614698
      6.23000000	     -0.31989783	     -4.13834127	    292.67296954	     -0.40755065	      0.92881625	      0.76429265	     10.06078696	     -4.93487777	      0.68671251	    -65.67984003	    -12.21458459	     12.91534895	      8.34712575	      1.78312977	    -25.92063337	    -20.65416071	      7.90490137	    -10.47076554	     -7.20110335	     -7.00615193	      4.32561237
      6.24000000	     -0.28420772	     -4.17872506	    294.07185904	     -0.40208539	      0.92968987	      0.76961782	     11.10722376	     -4.95222481	      0.30398716	    -65.50009501	    -11.06138991	     12.57989343	      7.60618623	      2.16509411	    -24.68265463	    -20.08286935	      7.94230289	    -10.15692671	     -7.30982630	     -6.89310750	      3.86164171
      6.25000000	     -0.24877857	     -4.18425947	    295.47023348	     -0.39670557	      0.93040372	      0.77478049	     12.14627644	     -5.00447002	     -0.04349322	    -65.11458621	     -9.82731557	     12.51532854	      6.90515564	      2.51914443	    -23.52391597	    -19.53191415	      8.02184722	    -10.01791433	     -7.38624588	     -6.79536526	      3.40682459
      6.26000000	     -0.17637874	     -4.20474627	    296.87052696	     -0.39139949	      0.93109877	      0.77976704	     13.11506523	     -5.10635942	     -0.36895367	    -64.52026636	     -8.74072469	     12.10276283	      6.13201907	      2.89638219	    -22.27981261	    -18.88865179	      8.01159116	     -9.80554370	     -7.51120566	     -6.72576468	      2.95724094
      6.27000000	     -0.08951881	     -4.21846863	    298.23675734	     -0.38619094	      0.93168252	      0.78467341	     14.03561761	     -5.23981501	     -0.65209102	    -63.73272398	     -7.61525452	     11.64094546	      5.35097758	      3.24478548	    -21.14562904	    -18.25514132	      8.04923654	     -9.63836675	     -7.63672122	     -6.67455354	      2.57798656
      6.28000000	      0.01454675	     -4.21355191	    299.58100502	     -0.38108847	      0.93217404	      0.78945543	     14.92446131	     -5.39464360	     -0.86857814	    -62.76292791	     -6.61489743	     11.16928220	      4.56367918	      3.59123476	    -20.00924028	    -17.59531997	      8.06051410	     -9.51687867	     -7.76615625	     -6.64668890	      2.18589335
      6.29000000	      0.13871511	     -4.21322677	    300.88879932	     -0.37610303	      0.93259960	      0.79418568	     15.74285834	     -5.55646183	     -1.02906729	    -61.60832882	     -5.63811121	     10.57418837	      3.75238567	      3.91588436	    -18.92121560	    -16.93589901	      8.09250100	     -9.42172813	     -7.91770701	     -6.63747787	      1.83284060
      6.30000000	      0.26976952	     -4.19350228	    302.17894742	     -0.37118973	      0.93294154	      0.79883333	     16.51512083	     -5.73549720	     -1.15944300	    -60.26996532	     -4.77597051	     10.02130671	      2.94859774	      4.22853376	    -17.81000645	    -16.27279807	      8.09739208	     -9.36768738	     -8.06277173	     -6.63899093	      1.50507690
      6.31000000	      0.41249035	     -4.16949966	    303.44247237	     -0.36638063	      0.93322218	      0.80343672	     17.21555406	     -5.90694538	     -1.23491181	    -58.74893363	     -3.96196385	      9.42448225	      2.14443111	      4.51822401	    -16.70334562	    -15.62878356	      8.10784496	     -9.33899829	     -8.21757587	     -6.65018368	      1.17754294
      6.32000000	      0.55472587	     -4.13375270	    304.69184624	     -0.36164181	      0.93344441	      0.80800492	     17.84905288	     -6.07391626	     -1.28778318	    -57.04289308	     -3.24771277	      8.87330795	      1.35452477	      4.78074880	    -15.57183700	    -15.00456434	      8.10133018	     -9.33282516	     -8.36404247	     -6.66317665	      0.86638395
      6.33000000	      0.69947119	     -4.09722124	    305.92156822	     -0.35697736	      0.93361354	      0.81257943	     18.39746866	     -6.22261050	     -1.30759635	    -55.15801775	     -2.57181124	      8.30873170	      0.57564858	      5.00716375	    -14.43761100	    -14.42230835	      8.12015263	     -9.33813438	     -8.51012682	     -6.67679333	      0.56941811
      6.34000000	      0.83890793	     -4.04876626	    307.13367670	     -0.35238251	      0.93371569	      0.81717274	     18.87554833	     -6.34995626	     -1.29621281	    -53.10112272	     -1.97192545	      7.79732205	     -0.17238053	      5.19830411	    -13.30400893	    -13.89047614	      8.16387694	     -9.34814744	     -8.63745798	     -6.69393273	      0.27958830
      6.35000000	      0.96737399	     -3.98965498	    308.32510835	     -0.34786687	      0.93374983	      0.82180104	     19.28649616	     -6.44362667	     -1.24142914	    -50.87920667	     -1.48182875	      7.36539649	     -0.88294709	      5.34954030	    -12.16184376	    -13.41433783	      8.21988747	     -9.35902505	     -8.74279158	     -6.71363035	      0.00005726
      6.36000000	      1.06626412	     -3.86468847	    309.50806912	     -0.34338305	      0.93360310	      0.82644997	     19.69915918	     -6.54207663	     -1.16530426	    -48.52358007	     -1.08526005	      7.12520876	     -1.48723190	      5.48544059	    -11.02350557	    -13.01442909	      8.35069134	     -9.35599730	     -8.75906365	     -6.75495778	     -0.30410982
      6.37000000	      1.19620909	     -3.83461707	    310.63511864	     -0.33893573	      0.93356695	      0.83122293	     19.90576347	     -6.56061633	     -1.03167326	    -45.97523920	     -0.79751033	      6.75405257	     -2.20183571	      5.55405448	     -9.93673492	    -12.61893334	      8.46748873	     -9.35355944	     -8.86461664	     -6.76067030	     -0.52645599
      6.38000000	      1.29163918	     -3.73426449	    311.75858364	     -0.33451922	      0.93333404	      0.83599701	     20.12373103	     -6.58795231	     -0.87734883	    -43.31068633	     -0.62530665	      6.61140480	     -2.79674115	      5.61126311	     -8.84353592	    -12.30604012	      8.64412372	     -9.33125038	     -8.87905738	     -6.79112697	     -0.78168391
      6.39000000	      1.37793491	     -3.62211222	    312.86952225	     -0.33012179	      0.93300833	      0.84078931	     20.27593507	     -6.60671932	     -0.70563353	    -40.51938893	     -0.55060627	      6.59544907	     -3.35192040	      5.64234130	     -7.75875152	    -12.04931436	      8.85171899	     -9.29621452	     -8.87352452	     -6.82557250	     -1.03999418
      6.40000000	      1.43914631	     -3.46313757	    313.98911778	     -0.32573391	      0.93252264	      0.84551773	     20.41552830	     -6.65069245	     -0.55370989	    -37.63512099	     -0.58881267	      6.67361967	     -3.80919273	      5.66379112	     -6.65925876	    -11.87757563	      9.10402770	     -9.25452146	     -8.81661624	     -6.86878836	     -1.33496775
      6.41000000	      1.54031741	     -3.37248353	    315.08060023	     -0.32133361	      0.93209577	      0.85030502	     20.38036739	     -6.67216558	     -0.40675936	    -34.62979043	     -0.63635930	      6.85549755	     -4.36309890	      5.64549167	     -5.58752315	    -11.69256789	      9.35460375	     -9.17963002	     -8.84200035	     -6.89056725	     -1.59807262
